---
thumbnail_title_lines:
  - text: "初めてのIaCで学んだ"
    size: 54
  - text: "AWS CloudFormation"
    size: 50
thumbnail_title_start_y: 250
thumbnail_title_line_gap: 74
---
<svg xmlns="http://www.w3.org/2000/svg" width="1200" height="630" viewBox="0 0 1200 630">
  <defs>
    <linearGradient id="bg" x1="0" y1="0" x2="1" y2="1">
      <stop offset="0%" stop-color="#087b8a"/>
      <stop offset="100%" stop-color="#036982"/>
    </linearGradient>
    <linearGradient id="paper" x1="0" y1="0" x2="0" y2="1">
      <stop offset="0%" stop-color="#ffffff"/>
      <stop offset="100%" stop-color="#d9eef2"/>
    </linearGradient>
  </defs>

  <rect width="1200" height="630" fill="url(#bg)"/>
  <circle cx="1045" cy="100" r="95" fill="#ffffff" fill-opacity="0.12"/>
  <circle cx="1040" cy="535" r="155" fill="#ffffff" fill-opacity="0.08"/>

  <rect x="80" y="90" width="290" height="40" rx="20" fill="#ffffff" fill-opacity="0.18"/>
  <text x="100" y="118" fill="#ffffff" font-size="18" font-family="Noto Sans JP, 'Hiragino Kaku Gothic ProN', 'Meiryo', sans-serif" font-weight="600">INFRASTRUCTURE AS CODE</text>

  {% include thumbnail-title-lines.svg lines=page.thumbnail_title_lines start_y=page.thumbnail_title_start_y line_gap=page.thumbnail_title_line_gap %}
  <text x="80" y="430" fill="#ffffff" font-size="26" font-family="Noto Sans JP, 'Hiragino Kaku Gothic ProN', 'Meiryo', sans-serif" opacity="0.9">テンプレート・スタック・変更セット</text>

  <g transform="translate(710 150) scale(0.9)">
    <path d="M18 0H174l56 56v232a22 22 0 0 1-22 22H18A22 22 0 0 1-4 288V22A22 22 0 0 1 18 0Z" fill="url(#paper)" fill-opacity="0.96"/>
    <path d="M174 0v42a14 14 0 0 0 14 14h42Z" fill="#7eb3bf" fill-opacity="0.78"/>

    <rect x="34" y="70" width="82" height="32" rx="16" fill="#087b8a" fill-opacity="0.16"/>
    <text x="51" y="93" fill="#087b8a" font-size="18" font-family="Noto Sans JP, 'Hiragino Kaku Gothic ProN', 'Meiryo', sans-serif" font-weight="700">YAML</text>

    <g fill="#087b8a">
      <circle cx="42" cy="138" r="7" fill-opacity="0.72"/>
      <rect x="62" y="131" width="126" height="14" rx="7" fill-opacity="0.5"/>
      <circle cx="42" cy="178" r="7" fill-opacity="0.58"/>
      <rect x="62" y="171" width="92" height="14" rx="7" fill-opacity="0.38"/>
      <circle cx="42" cy="218" r="7" fill-opacity="0.48"/>
      <rect x="62" y="211" width="110" height="14" rx="7" fill-opacity="0.32"/>
    </g>

    <path d="M244 155H286" fill="none" stroke="#ffffff" stroke-width="9" stroke-linecap="round"/>
    <path d="M274 139L292 155L274 171" fill="none" stroke="#ffffff" stroke-width="9" stroke-linecap="round" stroke-linejoin="round"/>

    <g transform="translate(300 5)">
      <rect x="0" y="0" width="190" height="84" rx="16" fill="#ffffff" fill-opacity="0.94"/>
      <rect x="0" y="108" width="190" height="84" rx="16" fill="#ffffff" fill-opacity="0.88"/>
      <rect x="0" y="216" width="190" height="84" rx="16" fill="#ffffff" fill-opacity="0.82"/>

      <g fill="#087b8a">
        <circle cx="32" cy="42" r="13"/>
        <circle cx="32" cy="150" r="13"/>
        <circle cx="32" cy="258" r="13"/>
        <rect x="58" y="29" width="105" height="14" rx="7" fill-opacity="0.62"/>
        <rect x="58" y="51" width="74" height="10" rx="5" fill-opacity="0.34"/>
        <rect x="58" y="137" width="105" height="14" rx="7" fill-opacity="0.62"/>
        <rect x="58" y="159" width="74" height="10" rx="5" fill-opacity="0.34"/>
        <rect x="58" y="245" width="105" height="14" rx="7" fill-opacity="0.62"/>
        <rect x="58" y="267" width="74" height="10" rx="5" fill-opacity="0.34"/>
      </g>
    </g>
  </g>
</svg>
